<svg class="typst-doc" viewBox="0 0 85.03937007874016 85.03937007874016" width="85.03937007874016pt" height="85.03937007874016pt" xmlns="http://www.w3.org/2000/svg" xmlns:xlink="http://www.w3.org/1999/xlink" xmlns:h5="http://www.w3.org/1999/xhtml">
    <path class="typst-shape" fill="#fffdf2" fill-rule="nonzero" d="M 0 0 L 0 85.03937 L 85.03937 85.03937 L 85.03937 0 Z "/>
    <g>
        <g transform="translate(0 0)">
            <g class="typst-group">
                <g>
                    <g transform="translate(0 0)">
                        <path class="typst-shape" fill="none" stroke="#aaaaaa" stroke-width="0.2" stroke-linecap="butt" stroke-linejoin="miter" stroke-miterlimit="4" d="M 0 85.03937 C 0 85.03937 0 0 0 0 "/>
                    </g>
                    <g transform="translate(14.173228346456693 0)">
                        <path class="typst-shape" fill="none" stroke="#aaaaaa" stroke-width="0.2" stroke-linecap="butt" stroke-linejoin="miter" stroke-miterlimit="4" d="M 0 85.03937 C 0 85.03937 0 0 0 0 "/>
                    </g>
                    <g transform="translate(28.346456692913385 0)">
                        <path class="typst-shape" fill="none" stroke="#aaaaaa" stroke-width="0.2" stroke-linecap="butt" stroke-linejoin="miter" stroke-miterlimit="4" d="M 0 85.03937 C 0 85.03937 0 0 0 0 "/>
                    </g>
                    <g transform="translate(42.51968503937008 0)">
                        <path class="typst-shape" fill="none" stroke="#aaaaaa" stroke-width="0.2" stroke-linecap="butt" stroke-linejoin="miter" stroke-miterlimit="4" d="M 0 85.03937 C 0 85.03937 0 0 0 0 "/>
                    </g>
                    <g transform="translate(56.69291338582677 0)">
                        <path class="typst-shape" fill="none" stroke="#aaaaaa" stroke-width="0.2" stroke-linecap="butt" stroke-linejoin="miter" stroke-miterlimit="4" d="M 0 85.03937 C 0 85.03937 0 0 0 0 "/>
                    </g>
                    <g transform="translate(70.86614173228347 0)">
                        <path class="typst-shape" fill="none" stroke="#aaaaaa" stroke-width="0.2" stroke-linecap="butt" stroke-linejoin="miter" stroke-miterlimit="4" d="M 0 85.03937 C 0 85.03937 0 0 0 0 "/>
                    </g>
                    <g transform="translate(85.03937007874016 0)">
                        <path class="typst-shape" fill="none" stroke="#aaaaaa" stroke-width="0.2" stroke-linecap="butt" stroke-linejoin="miter" stroke-miterlimit="4" d="M 0 85.03937 C 0 85.03937 0 0 0 0 "/>
                    </g>
                    <g transform="translate(0 85.03937007874016)">
                        <path class="typst-shape" fill="none" stroke="#aaaaaa" stroke-width="0.2" stroke-linecap="butt" stroke-linejoin="miter" stroke-miterlimit="4" d="M 0 0 C 0 0 85.03937 0 85.03937 0 "/>
                    </g>
                    <g transform="translate(0 70.86614173228347)">
                        <path class="typst-shape" fill="none" stroke="#aaaaaa" stroke-width="0.2" stroke-linecap="butt" stroke-linejoin="miter" stroke-miterlimit="4" d="M 0 0 C 0 0 85.03937 0 85.03937 0 "/>
                    </g>
                    <g transform="translate(0 56.69291338582677)">
                        <path class="typst-shape" fill="none" stroke="#aaaaaa" stroke-width="0.2" stroke-linecap="butt" stroke-linejoin="miter" stroke-miterlimit="4" d="M 0 0 C 0 0 85.03937 0 85.03937 0 "/>
                    </g>
                    <g transform="translate(0 42.51968503937008)">
                        <path class="typst-shape" fill="none" stroke="#aaaaaa" stroke-width="0.2" stroke-linecap="butt" stroke-linejoin="miter" stroke-miterlimit="4" d="M 0 0 C 0 0 85.03937 0 85.03937 0 "/>
                    </g>
                    <g transform="translate(0 28.346456692913385)">
                        <path class="typst-shape" fill="none" stroke="#aaaaaa" stroke-width="0.2" stroke-linecap="butt" stroke-linejoin="miter" stroke-miterlimit="4" d="M 0 0 C 0 0 85.03937 0 85.03937 0 "/>
                    </g>
                    <g transform="translate(0 14.173228346456693)">
                        <path class="typst-shape" fill="none" stroke="#aaaaaa" stroke-width="0.2" stroke-linecap="butt" stroke-linejoin="miter" stroke-miterlimit="4" d="M 0 0 C 0 0 85.03937 0 85.03937 0 "/>
                    </g>
                    <g transform="translate(0 0)">
                        <path class="typst-shape" fill="none" stroke="#aaaaaa" stroke-width="0.2" stroke-linecap="butt" stroke-linejoin="miter" stroke-miterlimit="4" d="M 0 0 C 0 0 85.03937 0 85.03937 0 "/>
                    </g>
                    <g transform="translate(14.173228346456693 14.173228346456693)">
                        <path class="typst-shape" fill="none" stroke="#000000" stroke-width="1" stroke-linecap="butt" stroke-linejoin="miter" stroke-miterlimit="4" d="M 28.346457 0 C 12.705336 0 0 12.705336 0 28.346457 C 0 28.346457 0 28.346457 0 28.346457 C 0 43.98758 12.705336 56.692913 28.346457 56.692913 C 28.346457 56.692913 28.346457 56.692913 28.346457 56.692913 C 43.98758 56.692913 56.692913 43.98758 56.692913 28.346457 C 56.692913 28.346457 56.692913 28.346457 56.692913 28.346457 C 56.692913 12.705336 43.98758 0 28.346457 0 C 28.346457 0 28.346457 0 28.346457 0 Z "/>
                    </g>
                    <g transform="translate(54.05439685039368 54.054396850393715)">
                        <path class="typst-shape" fill="#ff4136" fill-rule="nonzero" d="M 8.503937 0 C 3.8116007 0 0 3.8116007 0 8.503937 C 0 8.503937 0 8.503937 0 8.503937 C 0 13.196274 3.8116007 17.007874 8.503937 17.007874 C 8.503937 17.007874 8.503937 17.007874 8.503937 17.007874 C 13.196274 17.007874 17.007874 13.196274 17.007874 8.503937 C 17.007874 8.503937 17.007874 8.503937 17.007874 8.503937 C 17.007874 3.8116007 13.196274 0 8.503937 0 C 8.503937 0 8.503937 0 8.503937 0 Z "/>
                    </g>
                </g>
            </g>
        </g>
    </g>
</svg>
